C:\GBW_MyPrograms\KinderuniversiteitApp\Resultaten\Ellis_v10102025\Jullie_lengte\Jullie_lengte_v6.mot
version=1
nRows=13
nColumns=29
inDegrees=yes
endheader
                time	         pelvis_tilt	           pelvis_tx	           pelvis_ty	       hip_flexion_l	       hip_flexion_r	        knee_angle_l	        knee_angle_r	       ankle_angle_l	       ankle_angle_r	    lumbar_extension	hamstrings_r/activation	bifemsh_r/activation	glut_max_r/activation	iliopsoas_r/activation	rect_fem_r/activation	  vasti_r/activation	gastroc_r/activation	 soleus_r/activation	tib_ant_r/activation	hamstrings_l/activation	bifemsh_l/activation	glut_max_l/activation	iliopsoas_l/activation	rect_fem_l/activation	  vasti_l/activation	gastroc_l/activation	 soleus_l/activation	tib_ant_l/activation	
          1.01471743	         -7.88347677	          0.85204976	          0.67405913	         -7.18473274	         31.71504110	        -11.08914810	        -14.29959526	          6.01103516	         11.01631663	          0.85297067	          0.10197732	          0.05000000	          0.05854682	          0.05000000	          0.06834687	          0.05503589	          0.05000000	          0.05000000	          0.23858920	          0.05000000	          0.11910101	          0.05000002	          0.34356549	          0.05000002	          0.05000000	          0.17438588	          0.24718713	          0.05000000	
          1.02486460	         -7.88200279	          0.86280586	          0.67341667	         -7.01791625	         30.87776683	        -13.07999755	        -13.64876962	          5.47793470	         10.92419207	          1.13915556	          0.09900608	          0.05000000	          0.06766312	          0.05000000	          0.05846012	          0.07357246	          0.05000000	          0.05000000	          0.25463411	          0.05000000	          0.10187239	          0.05355354	          0.32368571	          0.05000000	          0.05000000	          0.14916000	          0.23083194	          0.05000000	
          1.03501178	         -7.87432211	          0.87383850	          0.67270361	         -6.73213764	         29.95405196	        -15.32360186	        -13.50577340	          4.82595403	         10.77999689	          1.46379140	          0.09363505	          0.05537584	          0.05787528	          0.05000000	          0.05000354	          0.06292980	          0.06378515	          0.05692355	          0.24055763	          0.05000001	          0.08713599	          0.08953531	          0.28442770	          0.05000000	          0.05000000	          0.12758319	          0.19744083	          0.05000000	
          1.04515895	         -7.86227820	          0.88502382	          0.67196957	         -6.34207525	         29.01323555	        -17.75883291	        -13.60458267	          4.01249052	         10.60436532	          1.80997319	          0.08196432	          0.06644668	          0.08652596	          0.05000000	          0.05000000	          0.10285883	          0.05455828	          0.05000000	          0.26537597	          0.05000000	          0.07453129	          0.10272005	          0.25672569	          0.05000000	          0.05000000	          0.10912758	          0.16887993	          0.05000000	
          1.05530613	         -7.84970977	          0.89613724	          0.67140307	         -5.82983355	         28.16338072	        -20.35525843	        -13.83876540	          3.00374096	         10.40929882	          2.14571135	          0.07245189	          0.05683480	          0.13608996	          0.05000000	          0.05000000	          0.16896545	          0.05000000	          0.05000000	          0.28480336	          0.05000000	          0.06374993	          0.08786103	          0.24393853	          0.05000000	          0.05916637	          0.09334168	          0.14445052	          0.11592254	
          1.06545330	         -7.84003613	          0.90699926	          0.67113372	         -5.19537138	         27.41357840	        -23.08532393	        -14.19605271	          1.96908154	         10.20038154	          2.44651871	          0.07172322	          0.05000000	          0.17363667	          0.05000000	          0.05000000	          0.21746685	          0.05000000	          0.05000000	          0.29765433	          0.05000000	          0.05452816	          0.07515145	          0.23708965	          0.05000000	          0.05336591	          0.07983929	          0.12355496	          0.23069374	
          1.07560047	         -7.83572322	          0.91748494	          0.67115411	         -4.45967390	         26.72132494	        -25.84366986	        -14.58819110	          1.29052921	         10.02630994	          2.69589496	          0.06807672	          0.05000000	          0.18901295	          0.05000000	          0.05000000	          0.24580135	          0.05000000	          0.05000000	          0.30417650	          0.05045830	          0.09944273	          0.06428038	          0.23686846	          0.05000000	          0.05000000	          0.06829011	          0.10568205	          0.22133993	
          1.08574765	         -7.83767967	          0.92755876	          0.67147385	         -3.65592537	         26.04714908	        -28.36268119	        -14.94254841	          1.17632025	          9.90845101	          2.89028662	          0.06727963	          0.05000001	          0.18281120	          0.05000000	          0.05000000	          0.25577439	          0.05000000	          0.05000000	          0.30003489	          0.05955886	          0.11803285	          0.05498187	          0.22787514	          0.05000000	          0.05000000	          0.06874747	          0.09039456	          0.24950312	
          1.09589482	         -7.84484513	          0.93725193	          0.67211508	         -2.76989215	         25.36103084	        -30.64541230	        -15.21362058	          1.40293451	          9.85524800	          3.03480764	          0.06634238	          0.05000002	          0.16717156	          0.05000000	          0.05000000	          0.25502038	          0.05000000	          0.05000000	          0.28980869	          0.06519311	          0.13046908	          0.05000000	          0.21849084	          0.05000000	          0.05000000	          0.06607454	          0.07731849	          0.24663718	
          1.10604200	         -7.85563496	          0.94661373	          0.67303800	         -1.79783064	         24.64655298	        -32.73641443	        -15.38089478	          1.81353015	          9.85428995	          3.13650667	          0.06546425	          0.05000002	          0.14726445	          0.05000000	          0.05000000	          0.24696011	          0.05000000	          0.05000000	          0.27712043	          0.06728535	          0.15084449	          0.05000000	          0.20812887	          0.05000001	          0.05000000	          0.06639087	          0.06613395	          0.23795198	
          1.11618917	         -7.86848257	          0.95569490	          0.67416959	         -0.74757314	         23.89838505	        -34.65895294	        -15.44317863	          2.32589207	          9.88351095	          3.20220391	          0.06715462	          0.05000002	          0.13554140	          0.05000000	          0.05000000	          0.23426660	          0.05000000	          0.05000000	          0.26481456	          0.07580903	          0.18042125	          0.05000000	          0.19570426	          0.09251925	          0.05000000	          0.06616446	          0.05656731	          0.22593609	
          1.12633635	         -7.88205643	          0.96454386	          0.67543010	          0.36640881	         23.11563887	        -36.41147867	        -15.40736930	          2.88161073	          9.92591578	          3.23821638	          0.06780741	          0.05000001	          0.12722061	          0.05000000	          0.05000000	          0.22066032	          0.05000000	          0.05000000	          0.25245297	          0.08036212	          0.21640822	          0.05000000	          0.18460432	          0.12639964	          0.05000000	          0.06550631	          0.05000000	          0.21636240	
          1.13648352	         -7.89526218	          0.97319909	          0.67674587	          1.53333908	         22.30133186	        -37.98859909	        -15.28586013	          3.43453007	          9.97108158	          3.24923266	          0.06794029	          0.05000001	          0.12151360	          0.05000000	          0.05000000	          0.20752618	          0.05000000	          0.05000000	          0.23880229	          0.08054894	          0.25730252	          0.05000000	          0.17439076	          0.15507364	          0.05000000	          0.05624188	          0.05000000	          0.21107108	
